<?xml version="1.0" encoding="utf-8"?>
<!-- Generator: Adobe Illustrator 28.3.0, SVG Export Plug-In . SVG Version: 6.00 Build 0)  -->
<svg version="1.1" id="レイヤー_1" xmlns="http://www.w3.org/2000/svg" xmlns:xlink="http://www.w3.org/1999/xlink" x="0px"
	 y="0px" viewBox="0 0 899.25 72.75" style="enable-background:new 0 0 899.25 72.75;" xml:space="preserve">
<style type="text/css">
	.st0{fill:none;stroke:#E95816;stroke-width:3;stroke-miterlimit:10;}
</style>
<g>
	<path class="st0" d="M32.04,7.02c7.47,0,11.07,0.63,14.58,2.7c5.22,2.88,8.01,8.64,8.01,16.29c0,9.81-4.41,17.73-11.79,20.97
		c-3.96,1.8-6.75,2.16-15.84,2.16h-4.77v17.91H6.3V7.02H32.04z M22.23,35.81h5.4c4.23,0,6.03-0.27,7.83-1.26
		c2.07-1.08,3.33-3.42,3.33-6.3c0-2.43-0.9-4.32-2.52-5.13c-1.71-0.9-3.33-1.08-8.46-1.08h-5.58V35.81z"/>
	<path class="st0" d="M136.35,7.02v15.03h-25.74v8.37h25.47v13.95h-25.47v8.73h25.74v13.95H95.49V7.02H136.35z"/>
	<path class="st0" d="M192.51,67.04h-15.75l17.37-60.03h23.85l17.28,60.03h-16.2l-3.6-12.96H196.2L192.51,67.04z M205.74,17.55
		l-6.3,22.59h12.69L205.74,17.55z"/>
	<path class="st0" d="M318.87,30.86h-0.72c-2.61-5.49-8.37-9-14.94-9c-3.78,0-7.2,1.35-9.72,3.87c-2.79,2.79-4.14,6.84-4.14,12.42
		c0,10.89,4.95,17.01,13.77,17.01c6.84,0,11.7-3.24,15.03-10.17h0.72v15.48c-6.39,5.85-11.7,8.1-19.53,8.1
		c-16.11,0-25.92-12.42-25.92-32.85c0-10.8,2.7-18.72,7.92-23.67c4.68-4.32,11.07-6.57,18.54-6.57c7.92,0,13.14,2.07,18.99,7.65
		V30.86z"/>
	<path class="st0" d="M401.84,7.02v15.03h-25.74v8.37h25.47v13.95h-25.47v8.73h25.74v13.95h-40.86V7.02H401.84z"/>
	<path class="st0" d="M467.9,29.88l12.33-12.33l7.2,7.2L475.1,37.07l12.33,12.24l-7.2,7.2L467.9,44.27l-12.33,12.24l-7.2-7.2
		l12.33-12.24l-12.33-12.33l7.2-7.2L467.9,29.88z"/>
	<path class="st0" d="M559.88,7.02c7.47,0,11.07,0.63,14.58,2.7c5.22,2.88,8.01,8.64,8.01,16.29c0,9.81-4.41,17.73-11.79,20.97
		c-3.96,1.8-6.75,2.16-15.84,2.16h-4.77v17.91h-15.93V7.02H559.88z M550.07,35.81h5.4c4.23,0,6.03-0.27,7.83-1.26
		c2.07-1.08,3.33-3.42,3.33-6.3c0-2.43-0.9-4.32-2.52-5.13c-1.71-0.9-3.33-1.08-8.46-1.08h-5.58V35.81z"/>
	<path class="st0" d="M639.26,7.02v60.03h-15.93V7.02H639.26z"/>
	<path class="st0" d="M724.22,7.02v15.03h-25.74v8.37h25.47v13.95h-25.47v8.73h25.74v13.95h-40.86V7.02H724.22z"/>
	<path class="st0" d="M810.98,30.86h-0.72c-2.61-5.49-8.37-9-14.94-9c-3.78,0-7.2,1.35-9.72,3.87c-2.79,2.79-4.14,6.84-4.14,12.42
		c0,10.89,4.95,17.01,13.77,17.01c6.84,0,11.7-3.24,15.03-10.17h0.72v15.48c-6.39,5.85-11.7,8.1-19.53,8.1
		c-16.11,0-25.92-12.42-25.92-32.85c0-10.8,2.7-18.72,7.92-23.67c4.68-4.32,11.07-6.57,18.54-6.57c7.92,0,13.14,2.07,18.99,7.65
		V30.86z"/>
	<path class="st0" d="M893.96,7.02v15.03h-25.74v8.37h25.47v13.95h-25.47v8.73h25.74v13.95H853.1V7.02H893.96z"/>
</g>
</svg>
