<?xml version="1.0" encoding="UTF-8"?>
<svg id="_レイヤー_2" data-name="レイヤー 2" xmlns="http://www.w3.org/2000/svg" viewBox="0 0 964.17 72">
  <defs>
    <style>
      .cls-1 {
        stroke: #e95816;
        stroke-miterlimit: 10;
        stroke-width: 3px;
      }

      .cls-1, .cls-2 {
        fill: none;
      }

      .cls-2 {
        stroke-width: 0px;
      }
    </style>
  </defs>
  <g id="_トップ" data-name="トップ">
    <g id="_メインメッセージ" data-name="メインメッセージ">
      <g>
        <path class="cls-1" d="M29.17,5.64c7.47,0,11.07.63,14.58,2.7,5.22,2.88,8.01,8.64,8.01,16.29,0,9.81-4.41,17.73-11.79,20.97-3.96,1.8-6.75,2.16-15.84,2.16h-4.77v17.91H3.43V5.64h25.74ZM19.36,34.43h5.4c4.23,0,6.03-.27,7.83-1.26,2.07-1.08,3.33-3.42,3.33-6.3,0-2.43-.9-4.32-2.52-5.13-1.71-.9-3.33-1.08-8.46-1.08h-5.58v13.77Z"/>
        <path class="cls-1" d="M133.48,5.64v15.03h-25.74v8.37h25.47v13.95h-25.47v8.73h25.74v13.95h-40.86V5.64h40.86Z"/>
        <path class="cls-1" d="M189.64,65.66h-15.75l17.37-60.03h23.85l17.28,60.03h-16.2l-3.6-12.96h-19.26l-3.69,12.96ZM202.87,16.17l-6.3,22.59h12.69l-6.39-22.59Z"/>
        <path class="cls-1" d="M316,29.48h-.72c-2.61-5.49-8.37-9-14.94-9-3.78,0-7.2,1.35-9.72,3.87-2.79,2.79-4.14,6.84-4.14,12.42,0,10.89,4.95,17.01,13.77,17.01,6.84,0,11.7-3.24,15.03-10.17h.72v15.48c-6.39,5.85-11.7,8.1-19.53,8.1-16.11,0-25.92-12.42-25.92-32.85,0-10.8,2.7-18.72,7.92-23.67,4.68-4.32,11.07-6.57,18.54-6.57,7.92,0,13.14,2.07,18.99,7.65v17.73h0Z"/>
        <path class="cls-1" d="M398.97,5.64v15.03h-25.74v8.37h25.47v13.95h-25.47v8.73h25.74v13.95h-40.86V5.64h40.86Z"/>
        <path class="cls-1" d="M465.03,28.5l12.33-12.33,7.2,7.2-12.33,12.32,12.33,12.24-7.2,7.2-12.33-12.24-12.33,12.24-7.2-7.2,12.33-12.24-12.33-12.33,7.2-7.2,12.33,12.34Z"/>
        <path class="cls-1" d="M557.01,5.64c7.47,0,11.07.63,14.58,2.7,5.22,2.88,8.01,8.64,8.01,16.29,0,9.81-4.41,17.73-11.79,20.97-3.96,1.8-6.75,2.16-15.84,2.16h-4.77v17.91h-15.93V5.64h25.74ZM547.2,34.43h5.4c4.23,0,6.03-.27,7.83-1.26,2.07-1.08,3.33-3.42,3.33-6.3,0-2.43-.9-4.32-2.52-5.13-1.71-.9-3.33-1.08-8.46-1.08h-5.58v13.77Z"/>
        <path class="cls-1" d="M636.39,5.64v60.03h-15.93V5.64h15.93Z"/>
        <path class="cls-1" d="M721.35,5.64v15.03h-25.74v8.37h25.47v13.95h-25.47v8.73h25.74v13.95h-40.86V5.64h40.86Z"/>
        <path class="cls-1" d="M808.11,29.48h-.72c-2.61-5.49-8.37-9-14.94-9-3.78,0-7.2,1.35-9.72,3.87-2.79,2.79-4.14,6.84-4.14,12.42,0,10.89,4.95,17.01,13.77,17.01,6.84,0,11.7-3.24,15.03-10.17h.72v15.48c-6.39,5.85-11.7,8.1-19.53,8.1-16.11,0-25.92-12.42-25.92-32.85,0-10.8,2.7-18.72,7.92-23.67,4.68-4.32,11.07-6.57,18.54-6.57,7.92,0,13.14,2.07,18.99,7.65v17.73Z"/>
        <path class="cls-1" d="M891.09,5.64v15.03h-25.74v8.37h25.47v13.95h-25.47v8.73h25.74v13.95h-40.86V5.64h40.86Z"/>
        <rect class="cls-2" width="964.17" height="72"/>
      </g>
    </g>
  </g>
</svg>